<svg width="39" height="39" viewBox="0 0 39 39" fill="none" xmlns="http://www.w3.org/2000/svg">
<rect x="1" y="38" width="37" height="37" rx="18.5" transform="rotate(-90 1 38)" stroke="#9747FF" stroke-width="2"/>
<path d="M15.828 21.0002L20.485 25.6572C20.8755 26.0476 20.8755 26.6807 20.485 27.0712C20.0945 27.4616 19.4615 27.4616 19.071 27.0712L12.7071 20.7073C12.3166 20.3167 12.3166 19.6836 12.7071 19.2931L19.071 12.9292C19.4615 12.5387 20.0945 12.5387 20.485 12.9292C20.8755 13.3196 20.8755 13.9527 20.485 14.3432L15.828 19.0002L27 19.0002C27.5523 19.0002 28 19.4479 28 20.0002C28 20.5525 27.5523 21.0002 27 21.0002L15.828 21.0002Z" fill="#9747FF"/>
</svg>
